<?xml version="1.0" encoding="UTF-8"?>
<svg version="1.1" viewBox="0 0 1024 1024" width="1024" height="1024" xmlns="http://www.w3.org/2000/svg">
<path transform="translate(442,851)" d="m0 0 11 3 36 12 47 16 8-1 33-11 17-6 1 2-2 7v8l13 10 3 2v2l-27 1-3 1 25 9 33 13 26 11 27 12 44 22 4 16 6 31v6l-8-6-18-14-21-16-24-16-15-9-16-9-17-9-29-13-23-9-31-10-9 1-31 9-28 10-23 10-22 10-22 12-18 10-22 14-17 12-19 14-13 10-3 1 1-11 7-37 8-5 41-20 34-15 30-12 30-11 33-11 4-2-19-3-23-2-32-1 5-5 7-5 1-2h2l4-8-6-16z" fill="#F9F9F7"/>
<path transform="translate(499,391)" d="m0 0h7l23 12 19 12 11 8 3 3v45l-1 27-2 5-11 8-18 10-19 9-10 3-7-1-16-8-12-7-12-9-17-14-3-10-2-16v-10l3-23 3-12 11-8 23-13 18-8z" fill="#F9F9F7"/>
<path transform="translate(548,319)" d="m0 0h8l20 9 18 10 16 12 6 5 2 7 1 14v27l-30 11-20 7-7-1-10-8-21-13-12-7-13-6-1-10v-44l10-5 21-6z" fill="#F9F9F7"/>
<path transform="translate(618,406)" d="m0 0 6 1 8 8 9 16 8 24 1 10-12 24-12 17-8 10-3 3-16-4-33-11-2-4 1-39 2-36 9-4z" fill="#F9F9F7"/>
<path transform="translate(562,506)" d="m0 0 6 1 43 14 2 2v16l-2 16-5 8-8 8-19 10-17 6-14 3-8 1h-24l-14-9-3-3v-32l1-9 21-7 23-12 12-8z" fill="#F9F9F7"/>
<path transform="translate(739,530)" d="m0 0 10 2 6 4 6 7 3 6 1 4v10l-3 10-6 10v2l6-2h10l23 6 7 3-3 5-13 15-2 2-9-2-18-6-7-2h-8l-7 6 1 5 11 14 10 14-1 4-14 17-4-2-14-20-13-19-7-9-12-17-7-10 4-6 13-15 11-14 9-11 7-7 5-3zm-7 26-4 3v2h-2v2h-2l-9 11-4 6 10 14 3 4 4-2 9-11 6-8 3-8-1-6-5-6-2-1z" fill="#F9F9F7"/>
<path transform="translate(375,619)" d="m0 0h10l13 4 10 5 10 8 7 8 3 7 1 6v12l-4 13-6 11-8 10-8 7-12 7-10 3h-15l-15-5-11-7-8-7-6-9-2-7v-18l5-13 7-11 3-4h2l2-4 11-8 12-6zm7 21-9 3-6 4-10 10-7 12-2 12 2 8 6 7 7 3h9l10-4 10-9 8-10 4-9 1-10-2-7-5-6-8-4z" fill="#F9F9F7"/>
<path transform="translate(462,328)" d="m0 0h16l14 2 10 3v53l-9 3-16 7-23 12-17 11-4-1-2-1v-2h-2v-2h-2l-9-12-6-10 1-7 7-16 10-16 10-11 17-11z" fill="#F9F9F7"/>
<path transform="translate(677,601)" d="m0 0 4 1 2 11v6l-19 10-24 11-1 5 2 16 25-11 16-8 4-1 2 7 1 10-16 8-17 8-9 4h-2l3 20v5l10-4 34-16 7-2 2 13v6l-29 14-36 16-6 2-2-6-9-55-4-24-2-14 16-8 39-19z" fill="#F9F9F7"/>
<path transform="translate(893,505)" d="m0 0h2l9 17 10 25 3 13 1 6v12l-3 17-6 18-10 22-12 20h-2l-10-21-6-20-2-14v-23l3-17 5-16 10-24z" fill="#F9F9F7"/>
<path transform="translate(125,505)" d="m0 0h2l12 25 9 23 4 20 1 17-2 21-4 17-6 15-6 11h-3l-9-15-13-27-5-15-3-16v-17l3-15 7-19 8-16z" fill="#F9F9F7"/>
<path transform="translate(18,542)" d="m0 0h10l14 5 14 9 10 9 11 13 11 17 10 18 10 21 9 23 1 6-10-1-15-5-10-5-11-8-5-4-9-11-8-11-10-18-8-17-10-26-4-11z" fill="#F9F9F7"/>
<path transform="translate(938,93)" d="m0 0 3 1 8 15 12 27 8 22 5 21 1 6v28l-4 16-5 12-7 12h-2l-13-29-9-25-7-25-3-18-1-21 2-15 3-12 6-11z" fill="#F9F9F7"/>
<path transform="translate(79,93)" d="m0 0h3l7 12 5 15 1 7v26l-3 18-6 23-8 23-11 25-6 11-3-3-8-16-4-13-2-13v-16l3-19 5-19 9-24 14-29z" fill="#F9F9F7"/>
<path transform="translate(127,259)" d="m0 0h3l-1 21-3 20-4 18-6 15-7 12-9 11-13 13-16 12-11 6h-2v-19l2-22 5-25 6-15 9-13 11-11 18-13z" fill="#F9F9F7"/>
<path transform="translate(17,233)" d="m0 0 5 2 7 7 9 14 6 14 4 16 2 16v38l-3 27-4 21-1 3-4-1-11-11-9-14-5-10-4-15-2-21v-12l2-26 6-39z" fill="#F9F9F7"/>
<path transform="translate(890,259)" d="m0 0 5 1 21 13 16 12 8 8 9 14 6 15 4 19 2 15 1 14v17l-4-1-15-9-11-9-12-11-10-13-6-10-6-15-5-21-3-29z" fill="#F9F9F7"/>
<path transform="translate(1e3 233)" d="m0 0 3 1 6 33 3 30v29l-2 16-6 18-7 12-8 10-10 10h-2l-3-15-4-36-1-16v-14l2-23 4-17 6-15 8-12z" fill="#F9F9F7"/>
<path transform="translate(991,542)" d="m0 0h11l-3 11-11 29-11 23-11 18-11 14-11 10-14 8-12 5-12 3-5-1 3-10 9-21 11-23 10-17 9-13 9-11 11-11 13-8 8-4z" fill="#F9F9F7"/>
<path transform="translate(241,704)" d="m0 0 5 1 24 16 10 8 9 8 10 13 8 15 7 20 4 18 1 9v15l-6-2-16-9-17-12-11-9-9-9-9-14-5-14-3-16-2-20z" fill="#F9F9F7"/>
<path transform="translate(109,382)" d="m0 0h2l5 26 2 15v30l-2 13-4 14-6 13-6 11-10 14-8 9-4 1-5-19-4-21-2-18v-12l2-15 4-12 7-14 10-14 12-14z" fill="#F9F9F7"/>
<path transform="translate(170,2)" d="m0 0h2l4 11 3 16v27l-3 15-5 15-9 15-11 12-10 9-13 9-9 5h-2v-33l4-25 4-14 7-16 10-16 12-14 14-15z" fill="#F9F9F7"/>
<path transform="translate(170,615)" d="m0 0 4 2 13 14 14 19 9 16 6 15 3 14 1 10v28l-2 16-2 7-4-2-10-9-7-8-12-14-11-17-6-13-3-12-1-10v-11l3-26 4-18z" fill="#F9F9F7"/>
<path transform="translate(336,770)" d="m0 0 16 4 23 8 16 8 10 7 10 9 11 14 11 19 10 25v1h-9l-18-4-19-6-16-7-10-7-10-9-9-14-8-18-7-21-2-8z" fill="#F9F9F7"/>
<path transform="translate(1017,389)" d="m0 0h3v10l-5 40-4 23-6 21-5 12-6 11-9 11-10 9-13 8-5 2-1-1 1-19 4-29 5-23 6-21 8-18 9-14 14-14z" fill="#F9F9F7"/>
<path transform="translate(848,2)" d="m0 0 5 2 7 8 8 8 13 17 8 14 6 14 4 14 4 27v30l-6-2-14-9-11-9-11-11-9-14-7-16-4-18-1-9v-11l3-20 4-13z" fill="#F9F9F7"/>
<path transform="translate(848,615)" d="m0 0h2l4 13 3 21v30l-4 15-8 16-8 12-11 13-9 10-9 9-4 2-2-6-2-12-1-12v-13l2-20 4-16 6-14 10-16 10-13 12-14z" fill="#F9F9F7"/>
<path transform="translate(909,382)" d="m0 0 4 2 11 12 12 16 7 11 5 11 3 10 1 9v22l-5 33-5 19h-4l-9-10-10-14-8-15-5-14-3-11-2-17v-14l3-26 4-21z" fill="#F9F9F7"/>
<path transform="translate(775,704)" d="m0 0h3v24l-2 17-4 18-8 16-7 9-12 12-18 13-15 9-9 5h-2v-18l3-17 7-23 8-16 8-11 9-10 11-9 17-12z" fill="#F9F9F7"/>
<path transform="translate(0,389)" d="m0 0 5 1 10 6 10 9 8 9 7 12 8 20 6 22 5 24 3 23 1 20-2 1-14-8-13-11-8-10-8-14-7-21-6-29-5-41z" fill="#F9F9F7"/>
<path transform="translate(195,791)" d="m0 0h14l17 3 19 7 16 8 18 10 16 11 14 10 3 2-2 4-15 6-15 3h-17l-16-4-15-6-19-10-18-12-21-16-6-4 2-4 10-5 7-2z" fill="#F9F9F7"/>
<path transform="translate(805,791)" d="m0 0h22l16 4 9 5-2 4-16 12-17 12-18 11-21 10-17 5-7 1h-14l-12-2-16-6-4-3v-2l18-13 20-13 18-10 17-8 15-5z" fill="#F9F9F7"/>
<path transform="translate(688,767)" d="m0 0h3l-2 14-4 19-6 18-6 12-9 11-13 11-17 10-16 7-19 6h-2l1-11 5-18 8-19 10-16 9-10 8-8 16-10 16-8z" fill="#F9F9F7"/>
<path transform="translate(310,562)" d="m0 0 9 1 7 3 8 6 9 11 7 14 2 10v8l-4 11-5 6h-3l-10-14-1-4 4-8v-7l-3-8-7-6-7-1-4 4-1 8 6 26v14l-4 10-5 6-10 5-10 1-10-3-9-6-9-9-8-13-5-14v-16l6-12 5-5 4 1 11 15-1 4-5 8v11l4 8 4 5 7 3 6-1 4-4 1-2v-10l-5-24v-11l3-8 7-8 7-4z" fill="#F9F9F7"/>
<path transform="translate(336,854)" d="m0 0h11l21 2 20 4 23 6 27 9-1 4-13 9-16 8-13 4-6 1h-21l-16-2-23-5-27-9-15-6v-3l7-7 13-8 14-5z" fill="#F9F9F7"/>
<path transform="translate(172,151)" d="m0 0h3l-2 10-10 28-11 21-8 10-11 11-15 10-15 8-13 5-7 2h-6l1-7 9-27 9-21 7-12 10-12 12-9 19-9 19-6z" fill="#F9F9F7"/>
<path transform="translate(81,682)" d="m0 0h18l14 3 15 6 15 10 11 9 21 21 9 11 13 16 7 11-9 3h-13l-15-3-13-5-14-8-11-9-10-9-7-7-9-11-12-15-14-20 1-2z" fill="#F9F9F7"/>
<path transform="translate(918,682)" d="m0 0h21l4 1-2 5-16 21-11 14-14 15-8 8-14 11-10 6-16 6-9 2-13 1-14-2 1-4 8-11 11-13 9-11 13-14h2v-2l8-7 14-11 14-8 13-5z" fill="#F9F9F7"/>
<path transform="translate(467,645)" d="m0 0h20l10 3 10 6 7 8 4 9 1 11h-22l-5-12-6-4-3-1h-9l-8 4-8 8-7 14-3 11v12l3 7 5 4 2 1h12l6-3 8-9 1-2 7 1 15 5-1 5-6 9-9 8-10 5-9 2h-12l-15-4-9-5-7-6-5-8-3-11v-11l3-15 8-16 8-10 9-8 14-7z" fill="#F9F9F7"/>
<path transform="translate(845,151)" d="m0 0 11 2 16 5 15 6 11 6 12 11 8 10 9 17 11 30 4 14v4l-9-1-18-7-17-9-12-9-9-8-9-12-6-10-10-24-7-21z" fill="#F9F9F7"/>
<path transform="translate(679,859)" d="m0 0h26l12 2 14 5 11 6 10 8v3l-25 10-27 8-15 3-17 2h-13l-15-2-14-5-15-8-9-7v-2l24-10 26-8 20-4z" fill="#F9F9F7"/>
<path transform="translate(569,642)" d="m0 0h18l8 3 6 4 8 9 3 9-19 7-3-1-4-7-5-3h-11l-7 4-6 7-4 9-2 8v21l4 10 5 4 2 1h10l7-4 5-6 5-13h23l-1 7-4 11-6 9-7 7-11 6-13 4h-16l-10-3-8-6-6-7-4-11-2-14 1-17 6-18 7-11 10-10 14-7z" fill="#F9F9F7"/>
<path transform="translate(782,95)" d="m0 0 6 2 12 8v14l-2 50h3l2-5 16-24 12-16 4 1 11 7 1 4-13 18-24 34-11 16-2 1-16-10v-29l1-36-4 4-10 15-16 23-3 4-5-2-11-7 2-5 13-19 28-40z" fill="#F9F9F7"/>
<path transform="translate(432,500)" d="m0 0 7 1 16 12 18 12 16 8 7 3 1 1-1 31-1 11h-33l-16-9-14-10-13-12-4-10-5-17 1-4 10-9z" fill="#F9F9F7"/>
<path transform="translate(408,392)" d="m0 0 5 5 12 16 7 7-1 11-2 14-1 25 4 28-13 9-10 8-6-2-5-4-4-8-6-20-3-20v-25l4-25 4-7 7-7z" fill="#F9F9F7"/>
<path transform="translate(683,59)" d="m0 0 6 1 36 12 10 5 6 7 1 3v13l-3 8-2 3h-2l-1 3-9 5h-18l6 8 3 9 3 25-7-1-13-4-2-5-4-28-3-7-8-4-3 3-9 21-4 8-7-1-12-4 1-6 14-30 17-36zm13 20-9 17 1 4 18 5h8l5-3 3-6-1-7-4-4-16-6z" fill="#F9F9F7"/>
<path transform="translate(439,178)" d="m0 0 12 2 7 6 3 9-1 10-4 7-9 8-10 4h-2v2l6 2 8 7 9 12 4 6v3l-16 3h-7l-10-15-8-10-4-3-11 1v19l-1 15-8 3-9 2h-5v-12l3-59 1-13 44-8zm-15 16-16 3-1 5v16l10-1 12-3 6-3 4-4 1-5-3-7-2-1z" fill="#F9F9F7"/>
<path transform="translate(708,206)" d="m0 0 6 1 15 6-1 4-18 22-2 3 25-7 24-7 6 1 16 8 5 3-3 2-32 7-11 3v14l1 43-2 1-20-11-1-1v-19l1-22-24 6-5 5-9 10-2 3-6-2-13-7v-3l9-11 14-17 10-13 11-14z" fill="#F9F9F7"/>
<path transform="translate(268,89)" d="m0 0 2 2 3 11v3l-25 15-12 8 4 16 4-1 31-19 3 1 3 13-9 6-21 13-4 3h-2l6 20v2l11-6 19-12 8-5h3l3 10v6l-23 14-27 18-5 3h-2l-15-50-10-35 5-5 21-13 19-12z" fill="#F9F9F7"/>
<path transform="translate(590,43)" d="m0 0 57 7 4 1-1 7-3 8-14-1-24-3h-5l-5 17 26 3 14 2-2 10-2 5-13-1-27-3-3 7-3 11v3l41 5 2 1-1 7-3 8h-9l-54-6-2-1 2-10 12-39 11-37z" fill="#F9F9F7"/>
<path transform="translate(603,180)" d="m0 0 10 1 54 11 1 3-5 10-4 1-35-7h-6l-4 9-3 6 9 1 30 6 3 1-1 4-4 8-3 1-25-5-16-3-3 9-3 7v3l36 7 9 2 1 2-6 12-10-1-47-9-13-3 5-12 14-30 15-33z" fill="#F9F9F7"/>
<path transform="translate(499,172)" d="m0 0h64l3 2-4 13h-45l-4 16h22l21 1-3 13-1 1h-43l-5 20h26l22 1-2 12-2 3h-23l-46-1 1-8 9-36 9-35z" fill="#F9F9F7"/>
<path transform="translate(346,63)" d="m0 0h4l19 42 11 25 4 10v3l-15 5h-4l-5-13-10 3-20 8-4 16-8 4-8 3h-3l5-27 8-38 7-30 2-5 8-3zm-6 22-2 8-5 29v5l6-1 14-5 1-3-12-33z" fill="#F9F9F7"/>
<path transform="translate(434,42)" d="m0 0h12l10 3 8 7 3 10-14 4-5-1-3-5v-2l-5-1h-7l-8 4-2 3v6l1 3 5 2 21 7 8 4 5 5 4 7v14l-6 12-8 7-13 5-11 2-11-1-8-3-6-5-4-8-1-7 7-3 11-2 5 10 4 2h11l6-3 4-5v-8l-1-3-9-3-19-6-8-6-5-6-1-3v-12l3-8 7-8 12-6z" fill="#F9F9F7"/>
<path transform="translate(323,207)" d="m0 0h9l10 3 8 7 1 4-15 9-4-1-5-3-6-1-9 3-5 5-4 8v14l3 12 5 8 4 3 3 1h8l8-4 5-8 3-13 17-5 3 1-1 12-3 10-8 11-11 8-11 5-9 2h-9l-11-4-8-7-5-7-4-11-1-7v-16l3-10 6-10 8-8 10-6 11-4z" fill="#F9F9F7"/>
<path transform="translate(490,39)" d="m0 0h72l-1 13-2 4-25 1-12 70-4 2h-16l-1-1 1-10 10-56v-5l-24-1 1-13z" fill="#F9F9F7"/>
<path transform="translate(623,356)" d="m0 0h11l10 14 9 17 6 16 5 20 2 15v17l-11 5-3-1-7-24-8-16-8-11-5-4-1-2-1-22-2-22z" fill="#F9F9F7"/>
<path transform="translate(663,461)" d="m0 0 4 1-1 13-4 17-7 19-11 20-10 13-10 11-7 4h-1v-30l1-7 12-15 12-18 12-22 7-5z" fill="#F9F9F7"/>
<path transform="translate(519,301)" d="m0 0h15l9 1 7 5 3 5-1 3-21 3-15 4-12 5-4 1-14-3-24-1-1-5 3-4 20-8 17-4z" fill="#F9F9F7"/>
<path transform="translate(554,305)" d="m0 0 7 1 18 6 19 10 17 12 12 11 4 6-9 2-5-1-14-11-15-10-17-9-13-5-4-10z" fill="#F9F9F7"/>
<path transform="translate(456,319)" d="m0 0 3 1v5l-10 7-11 7-10 11-9 14-9 19-3 5-15 10 1-8 10-20 10-14 11-12 9-9 13-10z" fill="#F9F9F7"/>
<path transform="translate(474,582)" d="m0 0h22l7 6 2 2-2 1-18-4-10-3z" fill="#F9F9F7"/>
<path transform="translate(401,516)" d="m0 0 6 3 5 14v3h-2l-9-15-1-4z" fill="#F9F9F7"/>
</svg>
